<svg width="176" height="28" viewBox="0 0 176 28" fill="none" xmlns="http://www.w3.org/2000/svg">
<path fill-rule="evenodd" clip-rule="evenodd" d="M92.8658 17.9617C92.8658 17.9617 89.8633 18.9536 88.1793 19.6861C86.4994 20.4213 87.3394 21.7024 87.3394 21.7024C87.3394 21.7024 88.1793 23.0984 90.1923 22.5849C93.0856 21.8159 92.8658 17.9617 92.8658 17.9617ZM100.119 12.7195C100.594 19.6496 99.634 24.3606 101.69 27.0594H94.0348C94.0348 27.0594 93.3364 26.1404 92.9723 25.2607C92.9723 25.2607 90.927 27.6811 86.5358 27.6811C82.1459 27.6811 79.6732 25.1147 79.6732 21.8159C79.6732 18.5144 81.5797 16.0913 87.7047 14.9926C90.1558 14.5534 92.3508 14.2601 92.46 12.902C92.5706 11.5438 90.7032 11.2884 90.2287 11.2884C90.2287 11.2884 87.431 11.083 87.4014 14.198H80.2584C80.2584 14.198 78.7389 6.30166 90.7396 6.30166C90.7396 6.30166 99.6448 5.78541 100.119 12.7195ZM39.6533 17.9617C39.6533 17.9617 36.6467 18.9536 34.9668 19.6861C33.2828 20.4213 34.1268 21.7024 34.1268 21.7024C34.1268 21.7024 34.9668 23.0984 36.9797 22.5849C39.8717 21.8159 39.6533 17.9617 39.6533 17.9617ZM46.9095 12.7195C47.3814 19.6496 46.4201 24.3606 48.4775 27.0594H40.8222C40.8222 27.0594 40.1278 26.1404 39.7584 25.2607C39.7584 25.2607 37.7131 27.6811 33.3232 27.6811C28.9334 27.6811 26.4607 25.1147 26.4607 21.8159C26.4607 18.5144 28.3671 16.0913 34.4881 14.9926C36.9433 14.5534 39.1382 14.2601 39.2515 12.902C39.3566 11.5438 37.4947 11.2884 37.0161 11.2884C37.0161 11.2884 34.2185 11.083 34.1888 14.198H27.0418C27.0418 14.198 25.5263 6.30166 37.5271 6.30166C37.5271 6.30166 46.4322 5.78541 46.9095 12.7195ZM26.6359 0.00405425H16.392L8.19194 8.24499V0.00405425H0V27.054H8.18925V19.0482L10.31 16.8508L16.7533 27.05H27.4139L16.1763 10.7857L26.6359 0.00405425ZM166.053 7.48955H156.794L152.802 12.1384V0H144.943V27.054H152.802V21.5443L153.815 20.4564L158.132 27.0459H167.204L159.209 14.7858L166.053 7.48955ZM168.14 27.05H176V7.49766H168.14V27.05ZM168.14 5.51243H176V0.00675708H168.14V5.51243ZM135.473 17.9617C135.473 17.9617 132.471 18.9536 130.787 19.6861C129.103 20.4213 129.947 21.7024 129.947 21.7024C129.947 21.7024 130.787 23.0984 132.8 22.5849C135.692 21.8159 135.473 17.9617 135.473 17.9617ZM142.729 12.7195C143.204 19.6496 142.244 24.3606 144.3 27.0594H136.641C136.641 27.0594 135.948 26.1404 135.582 25.2607C135.582 25.2607 133.533 27.6811 129.139 27.6811C124.753 27.6811 122.276 25.1147 122.276 21.8159C122.276 18.5144 124.191 16.0913 130.315 14.9926C132.762 14.5534 134.958 14.2601 135.07 12.902C135.176 11.5438 133.313 11.2884 132.836 11.2884C132.836 11.2884 130.038 11.083 130.013 14.198H122.864C122.864 14.198 121.345 6.30166 133.351 6.30166C133.351 6.30166 142.251 5.78541 142.729 12.7195ZM113.828 14.2818C109.658 13.7331 109.077 13.3709 109.077 12.456C109.077 11.756 109.913 11.2073 111.415 11.2073C112.916 11.2073 113.796 12.3128 113.942 13.375H120.779C120.779 9.70587 118.365 6.56518 111.232 6.56518C101.17 6.56518 101.758 13.2574 101.758 13.2574C101.758 18.7225 108.307 19.2834 111.381 19.7442C114.125 20.1875 114.048 21.6916 114.048 21.6916C114.048 21.6916 114.125 23.1633 111.633 23.1633C108.526 23.1633 108.562 20.2158 108.562 20.2158H101.389C101.389 26.4513 106.915 28 111.565 28C116.207 28 121.368 26.3891 121.368 21.4389C121.368 16.4859 118.62 15.2737 113.828 14.2818ZM80.5644 7.50036L74.5647 27.0459H66.9202L63.8448 17.4765L61.2117 27.0459H53.2746L46.5401 7.50036H54.6997L57.4784 16.6711L60.3529 7.50036H67.175L69.8095 16.6711L72.8471 7.50036H80.5644Z" fill="white"/>
</svg>
